<?xml version="1.0" encoding="UTF-8" standalone="no"?>
<!-- Created with Inkscape (http://www.inkscape.org/) -->

<svg
   xmlns:dc="http://purl.org/dc/elements/1.1/"
   xmlns:cc="http://creativecommons.org/ns#"
   xmlns:rdf="http://www.w3.org/1999/02/22-rdf-syntax-ns#"
   xmlns:svg="http://www.w3.org/2000/svg"
   xmlns="http://www.w3.org/2000/svg"
   xmlns:sodipodi="http://sodipodi.sourceforge.net/DTD/sodipodi-0.dtd"
   xmlns:inkscape="http://www.inkscape.org/namespaces/inkscape"
   width="16"
   height="16"
   id="svg2"
   version="1.1"
   inkscape:version="0.48.1 r9760"
   sodipodi:docname="New document 1">
  <defs
     id="defs4" />
  <sodipodi:namedview
     id="base"
     pagecolor="#ffffff"
     bordercolor="#666666"
     borderopacity="1.0"
     inkscape:pageopacity="0.0"
     inkscape:pageshadow="2"
     inkscape:zoom="31.678384"
     inkscape:cx="4.9506083"
     inkscape:cy="7.5152176"
     inkscape:document-units="px"
     inkscape:current-layer="layer1"
     showgrid="false"
     inkscape:window-width="1366"
     inkscape:window-height="744"
     inkscape:window-x="0"
     inkscape:window-y="24"
     inkscape:window-maximized="1" />
  <metadata
     id="metadata7">
    <rdf:RDF>
      <cc:Work
         rdf:about="">
        <dc:format>image/svg+xml</dc:format>
        <dc:type
           rdf:resource="http://purl.org/dc/dcmitype/StillImage" />
        <dc:title></dc:title>
      </cc:Work>
    </rdf:RDF>
  </metadata>
  <g
     inkscape:label="Layer 1"
     inkscape:groupmode="layer"
     id="layer1"
     transform="translate(0,-1036.3622)">
    <path
       style="fill:#ff0000;stroke:#ff0000"
       id="path2997"
       d="m 2.9254436,7.0615163 c 0.085612,0.390362 0.1620604,0.783716 0.2170506,1.1797162 0.020765,0.1495312 0.037382,0.2996092 0.056072,0.4494137 0.090362,0.8678002 0.128979,1.7409068 0.1321299,2.6132458 8.173e-4,0.226263 0.00126,0.452623 -0.00618,0.678766 -0.00692,0.210402 -0.024584,0.420313 -0.036875,0.63047 -0.023439,0.185761 -0.035751,0.373268 -0.070318,0.557283 -0.078517,0.417983 -0.2171072,0.846674 -0.519099,1.159806 -0.2230228,0.231249 -0.3049317,0.228182 -0.5995067,0.349353 -0.1148032,0.01701 -0.2284735,0.04574 -0.3444095,0.05103 -0.2344581,0.01069 -0.5300786,-0.03182 -0.7562706,-0.0876 -0.12718604,-0.03137 -0.25011877,-0.07798 -0.37517815,-0.116975 0,0 0.0218462,-0.01489 0.0218462,-0.01489 l 0,0 c 0.12502029,0.03889 0.24791652,0.08541 0.37506086,0.116664 0.2268362,0.05576 0.5211285,0.09772 0.7561647,0.0866 0.1158703,-0.0055 0.2294333,-0.03441 0.34415,-0.05162 0.09634,-0.03704 0.1997995,-0.05924 0.2890213,-0.111133 0.4835813,-0.281277 0.6882217,-0.852063 0.7864962,-1.370504 0.034894,-0.18408 0.04747,-0.371697 0.071205,-0.557546 0.012492,-0.210215 0.030382,-0.42018 0.037477,-0.630647 0.00763,-0.2262 0.00743,-0.452625 0.00667,-0.678953 C 3.3080085,10.442179 3.2681859,9.5696408 3.1758552,8.7025796 3.1062244,8.1569239 3.0269049,7.6116022 2.8980375,7.0762438 c 0,0 0.027406,-0.014728 0.027406,-0.014728 z"
       inkscape:connector-curvature="0"
       transform="translate(0,1036.3622)" />
    <path
       style="fill:#ff0000;stroke:#ff0000"
       id="path2999"
       d="m 2.3945182,5.0348272 c -0.042112,0.056744 -0.020211,0.026703 -0.065534,0.090248 0,0 -0.028225,0.012247 -0.028225,0.012247 l 0,0 c 0.045095,-0.0635 0.023306,-0.033509 0.065187,-0.090103 0,0 0.028572,-0.012392 0.028572,-0.012392 z"
       inkscape:connector-curvature="0"
       transform="translate(0,1036.3622)" />
    <path
       style="fill:#ff0000;stroke:#ff0000"
       id="path3001"
       d="m 4.2119386,3.5590961 c 0.016847,1.1788717 0.134797,2.3578162 0.3329767,3.5199231 0.070414,0.412904 0.158451,0.8226087 0.2376764,1.233913 0.2882591,1.2022352 0.3225438,1.4360503 0.698964,2.6303258 0.1350748,0.428554 0.2897656,0.850678 0.4346485,1.276016 0,0 -0.012224,0.0067 -0.012224,0.0067 l 0,0 C 5.759253,11.800569 5.6049267,11.378267 5.4697977,10.949675 5.0911307,9.7486457 5.0599366,9.5287145 4.7692196,8.3200707 4.6893537,7.9090783 4.6006881,7.4996985 4.5296217,7.0870934 4.3297639,5.9267355 4.2105258,4.7499877 4.1849545,3.5728452 c 0,0 0.026984,-0.013749 0.026984,-0.013749 z"
       inkscape:connector-curvature="0"
       transform="translate(0,1036.3622)" />
    <path
       style="fill:#ff0000;stroke:#ff0000"
       id="path3003"
       d="M 5.2020998,9.8209061 C 5.2668353,9.5483593 5.3734654,9.2880192 5.4817159,9.0304734 5.5968484,8.8046862 5.6569735,8.6706425 5.8049567,8.4551407 6.0639138,8.0780323 6.3777354,7.7361492 6.7242749,7.4381555 6.8363447,7.3417853 6.9568326,7.2556607 7.0731114,7.1644133 7.3532843,6.9951596 7.6481642,6.785514 7.992047,6.786463 c 0.074038,2.043e-4 0.1503186,0.011013 0.218509,0.039851 0.1792238,0.075795 0.2300532,0.1911407 0.3406289,0.3412661 0.043953,0.1000018 0.093419,0.1977578 0.13186,0.3000053 0.1644545,0.4374277 0.2600827,0.9030773 0.3691171,1.3560656 0.083137,0.3453976 0.2195978,0.9211804 0.3003033,1.2609839 0.176099,0.70993 0.3427116,1.422043 0.5054305,2.13513 0,0 -0.019428,0.01045 -0.019428,0.01045 l 0,0 C 9.6758777,11.517173 9.5096243,10.80504 9.3324113,10.095451 9.2224548,9.6343648 9.1415209,9.2930062 9.0305896,8.8353002 8.9209281,8.3828333 8.8245179,7.9177308 8.6592633,7.4809746 8.6206897,7.3790274 8.5710565,7.2816152 8.526953,7.1819355 8.4163821,7.0324355 8.3658322,6.9179914 8.1870596,6.8427478 8.1191427,6.8141622 8.0432283,6.8034529 7.969541,6.8033245 7.6430684,6.8027555 7.3616377,6.9899922 7.0970401,7.1548376 6.9806111,7.2460658 6.8599576,7.3321457 6.7477531,7.4285223 6.4014447,7.7259793 6.0879187,8.0674191 5.8295079,8.4442721 5.6818314,8.6596358 5.6223217,8.7929227 5.5076315,9.0185407 5.399969,9.2755133 5.2938016,9.5353896 5.2302023,9.8074439 c 0,0 -0.028103,0.013462 -0.028103,0.013462 z"
       inkscape:connector-curvature="0"
       transform="translate(0,1036.3622)" />
    <path
       style="fill:#ff0000;stroke:#ff0000;stroke-width:0.94261342"
       id="path3007"
       d="m 13.671565,1042.7342 c -0.07267,-0.1216 -0.169712,-0.2292 -0.293217,-0.3131 -0.03777,-0.025 -0.07849,-0.047 -0.117736,-0.072 -0.374213,-0.1981 -0.801345,-0.2131 -1.226371,-0.177 -0.129693,0.011 -0.257827,0.033 -0.386741,0.05 -0.124028,0.028 -0.250825,0.046 -0.372086,0.083 -0.321533,0.096 -0.632513,0.2463 -0.837141,0.4939 -0.06361,0.078 -0.12031,0.1606 -0.155878,0.2507 -0.03881,0.098 -0.04294,0.2049 -0.06441,0.3074 0.0077,0.1152 -3.23e-4,0.2322 0.02309,0.3458 0.121226,0.588 0.561913,1.1505 0.99696,1.5897 0.13481,0.1361 0.281688,0.2625 0.422533,0.3937 0.717193,0.6231 1.516091,1.1655 2.243919,1.7783 0.117532,0.099 0.230074,0.2024 0.345111,0.3036 0.207206,0.1979 0.310701,0.2828 0.482448,0.4943 0.103453,0.1274 0.267622,0.3415 0.155242,0.51 -0.04451,0.067 -0.12037,0.1125 -0.180555,0.1686 -0.11017,0.061 -0.214006,0.1318 -0.330509,0.1825 -0.389152,0.169 -0.878111,0.3094 -1.292582,0.3991 -0.308837,0.067 -0.623081,0.1123 -0.934621,0.1685 0,0 0.01522,-0.011 0.01522,-0.011 l 0,0 c 0.312189,-0.057 0.627104,-0.1025 0.936567,-0.17 0.347182,-0.076 0.908866,-0.2317 1.250709,-0.3789 0.116176,-0.05 0.219484,-0.1209 0.329225,-0.1813 0.06007,-0.055 0.13562,-0.1007 0.180202,-0.1669 0.113077,-0.1677 -0.04955,-0.3814 -0.152324,-0.5089 -0.170869,-0.212 -0.273897,-0.2968 -0.480526,-0.495 -0.114794,-0.1014 -0.227065,-0.205 -0.344382,-0.304 -0.726921,-0.6136 -1.526021,-1.1558 -2.24327,-1.7787 -0.141014,-0.1313 -0.28809,-0.2575 -0.423064,-0.3936 -0.355118,-0.3582 -0.676491,-0.7538 -0.870692,-1.2023 -0.05445,-0.1258 -0.101498,-0.2552 -0.129115,-0.3877 -0.02369,-0.1137 -0.01589,-0.2308 -0.02383,-0.3461 0.02123,-0.1027 0.02504,-0.2094 0.06369,-0.3079 0.156424,-0.3988 0.612884,-0.6426 1.039081,-0.7689 0.121304,-0.036 0.248112,-0.055 0.372169,-0.083 0.129069,-0.016 0.257362,-0.039 0.387208,-0.05 0.426109,-0.036 0.854481,-0.022 1.229757,0.1768 0.03939,0.024 0.08027,0.045 0.118169,0.072 0.123907,0.085 0.221149,0.1921 0.294801,0.3133 0,0 -0.02705,0.014 -0.02705,0.014 z"
       inkscape:connector-curvature="0" />
  </g>
</svg>
